<?xml version="1.0" encoding="UTF-8"?>
<svg id="Layer_2" data-name="Layer 2" xmlns="http://www.w3.org/2000/svg" viewBox="0 0 248.77 91.91">
  <defs>
    <style>
      .cls-1 {
        letter-spacing: .18em;
      }

      .cls-2 {
        font-family: Rowdies-Bold, Rowdies;
        font-size: 30.51px;
        font-weight: 700;
      }

      .cls-2, .cls-3, .cls-4 {
        fill: #231f20;
      }

      .cls-3 {
        font-family: BebasNeue-Regular, 'Bebas Neue';
        font-size: 29.37px;
      }

      .cls-5 {
        letter-spacing: .18em;
      }

      .cls-6 {
        letter-spacing: .18em;
      }
    </style>
  </defs>
  <g id="Layer_1-2" data-name="Layer 1">
    <text class="cls-2" transform="translate(0 26.06)"><tspan x="0" y="0">BURNING MAN</tspan></text>
    <text class="cls-3" transform="translate(136.57 51.94) scale(1 .64)"><tspan class="cls-6" x="0" y="0">PR</tspan><tspan class="cls-5" x="33.75" y="0">O</tspan><tspan class="cls-1" x="50.67" y="0">JECT</tspan></text>
    <g>
      <path class="cls-4" d="m85.87,57.2c-3.68,1.47-4.82,6.45-2.11,9.36,2.17,2.41,5.89,2.61,8.3.44,2.04-1.84,4.34-3.47,6.89-4.77,8.21-4.15,17.95-4.79,26.91-2.64-5.7-3.42-12.21-5.45-18.93-6.08-7.2-.64-14.44.63-21.06,3.7Z"/>
      <path class="cls-4" d="m145.1,70.28c-4.76-2.16-9.25-4.94-14.58-6.14-8.87-2.23-18.07,1.16-25.57,5.85-1.24.8-2.87,1.89-4.11,2.65-13.84,8.82-22.27,3.17-31.07-4,.48-.91.87-1.89,1.12-2.93.02-.15.08-.43.09-.58.2-4.21,1.32-8.66,5.22-10.91,8.58-5.32,26.55.44,32.33-8.36-4.26,4.38-10.82,2.9-16.29,2.29-6.19-.8-12.3-2.02-18.68.17-.74.24-1.44.55-2.11.9-3.58-3.62-12.01-10.61-24.26-11.33-16.61-.97-29.44,7.98-29.44,7.98,0,0-11.21,1.08-15.31,6.58-4.1,5.5-2.52,11.97,1.01,15.53,0,0-1.04-2.84-.32-5.82,0,0,4.74,1.73,9.96.65,4.05,3.6,15.18,1.71,19.06,8.56,2.16,4.89,7.43,7.87,12.93,6.9.64-.11,2.18.21,3.99.97,7.1,3.13,13.13,7.58,21.4,10.45,9.31,3.44,19.54,3.05,28.25-1.84,3.82-2.1,7.26-4.87,10.37-7.87.71-.69,1.83-1.78,2.57-2.41,7.64-6.83,14.94-9.54,25.1-6.59,7.59,2.14,15.25,4.87,22.83.83-4.91,1.54-9.95.66-14.49-1.48Zm-109.06-18.1c-1.12.18-2.23-1.03-2.29-2.56-.07-1.53.58-2.61,2.47-2.97s2.65-.4,4.23.94c1.68,1.44.4,3.96-4.41,4.59Z"/>
    </g>
  </g>
</svg>